<svg xmlns="http://www.w3.org/2000/svg" viewBox="0 0 896 136" width="896" height="136"><path d="M10.352 36.528Q12.80970786516854 36.611999999999995 16.78885393258427 36.696Q20.768 36.779999999999994 24.8 36.779999999999994Q29.009456953642385 36.779999999999994 32.860662251655626 36.696Q36.711867549668874 36.611999999999995 38.324 36.611999999999995Q49.832 36.611999999999995 55.46 40.30799999999999Q61.088 44.004 61.088 49.8Q61.088 52.739999999999995 58.988 55.89Q56.888000000000005 59.04 52.604 61.434Q48.32 63.827999999999996 41.684000000000005 64.668V64.836Q50.336000000000006 65.256 55.544000000000004 67.524Q60.752 69.792 63.104 73.026Q65.456 76.25999999999999 65.456 79.70400000000001Q65.456 85.332 62.432 88.94399999999999Q59.408 92.556 53.75659016393443 94.27799999999999Q48.10518032786886 96.0 40.256 96.0Q38.24 96.0 34.34688 95.874Q30.453760000000003 95.748 24.968 95.748Q20.768 95.748 16.78885393258427 95.78999999999999Q12.80970786516854 95.832 10.352 96.0V94.32Q12.956 94.152 14.207063829787234 93.648Q15.458127659574469 93.144 15.887063829787236 91.632Q16.316000000000003 90.12 16.316000000000003 87.096V45.431999999999995Q16.316000000000003 42.324 15.876340425531916 40.854Q15.43668085106383 39.38399999999999 14.154340425531915 38.837999999999994Q12.872 38.291999999999994 10.352 38.208ZM37.904 38.208Q35.08432432432433 38.208 34.22616216216217 39.635999999999996Q33.368 41.064 33.368 45.431999999999995V87.096Q33.368 90.036 33.8048 91.548Q34.2416 93.06 35.406400000000005 93.564Q36.571200000000005 94.068 38.828 94.068Q43.53828877005348 94.068 45.677144385026736 90.24600000000001Q47.816 86.424 47.816 79.368Q47.816 72.9 44.75 69.372Q41.684000000000005 65.844 34.544 65.844H28.412000000000003Q28.412000000000003 65.844 28.412000000000003 65.13Q28.412000000000003 64.416 28.412000000000003 64.416H35.636Q38.906285714285715 64.416 40.68000000000001 62.525999999999996Q42.45371428571429 60.635999999999996 43.118857142857145 57.486Q43.784 54.336 43.784 50.724Q43.784 44.507999999999996 42.419 41.358Q41.054 38.208 37.904 38.208Z M91.328 51.227999999999994Q97.88 51.227999999999994 102.71 53.45399999999999Q107.53999999999999 55.68 110.228 60.72Q112.916 65.75999999999999 112.916 74.244Q112.916 82.728 110.228 87.768Q107.53999999999999 92.80799999999999 102.71 94.99199999999999Q97.88 97.176 91.328 97.176Q84.86 97.176 79.988 94.99199999999999Q75.116 92.80799999999999 72.428 87.768Q69.74 82.728 69.74 74.244Q69.74 65.75999999999999 72.428 60.72Q75.116 55.68 79.988 53.45399999999999Q84.86 51.227999999999994 91.328 51.227999999999994ZM91.328 52.907999999999994Q88.80799999999999 52.907999999999994 87.12799999999999 57.94799999999999Q85.448 62.988 85.448 74.244Q85.448 85.5 87.12799999999999 90.49799999999999Q88.80799999999999 95.496 91.328 95.496Q93.848 95.496 95.52799999999999 90.49799999999999Q97.208 85.5 97.208 74.244Q97.208 62.988 95.52799999999999 57.94799999999999Q93.848 52.907999999999994 91.328 52.907999999999994Z M161.552 51.48V86.844Q161.552 90.624 162.60199999999998 92.43Q163.652 94.236 166.256 94.236V96.0Q163.652 95.748 161.048 95.748Q156.848 95.748 153.236 96.0Q149.624 96.252 146.432 96.924V90.876Q144.416 94.236 141.014 95.706Q137.612 97.176 133.076 97.176Q129.212 97.176 126.98599999999999 96.21000000000001Q124.75999999999999 95.244 123.584 93.816Q122.324 92.304 121.73599999999999 89.78399999999999Q121.148 87.264 121.148 82.98V61.559999999999995Q121.148 57.78 120.13999999999999 55.974000000000004Q119.13199999999999 54.168 116.444 54.168V52.403999999999996Q119.13199999999999 52.656 121.652 52.656Q125.852 52.656 129.506 52.361999999999995Q133.16 52.068 136.268 51.48V87.516Q136.268 89.28 136.688 90.456Q137.108 91.632 138.03199999999998 92.22Q138.956 92.80799999999999 140.384 92.80799999999999Q141.98 92.80799999999999 143.324 92.05199999999999Q144.668 91.29599999999999 145.55 89.91Q146.432 88.524 146.432 86.76V61.559999999999995Q146.432 57.78 145.42399999999998 55.974000000000004Q144.416 54.168 141.728 54.168V52.403999999999996Q144.416 52.656 146.936 52.656Q151.136 52.656 154.79 52.361999999999995Q158.444 52.068 161.552 51.48Z M200.192 51.227999999999994Q203.216 51.227999999999994 204.89600000000002 52.53Q206.576 53.832 207.248 55.806Q207.92000000000002 57.78 207.92000000000002 59.711999999999996Q207.92000000000002 63.492 205.77800000000002 65.718Q203.636 67.944 200.192 67.944Q196.496 67.944 194.606 66.26400000000001Q192.716 64.584 192.716 61.896Q192.716 59.04 193.934 57.19199999999999Q195.152 55.343999999999994 197.0 54.083999999999996Q195.488 54.083999999999996 194.312 54.672Q193.304 55.092 192.38 55.848Q191.45600000000002 56.604 190.784 57.56999999999999Q190.112 58.535999999999994 189.73399999999998 59.711999999999996Q189.356 60.888 189.356 62.147999999999996V87.348Q189.356 91.38 191.036 92.80799999999999Q192.716 94.236 196.58 94.236V96.0Q194.648 95.916 190.826 95.78999999999999Q187.004 95.664 182.972 95.664Q179.192 95.664 175.328 95.78999999999999Q171.464 95.916 169.532 96.0V94.236Q172.136 94.236 173.18599999999998 92.976Q174.236 91.716 174.236 88.188V61.559999999999995Q174.236 57.78 173.228 55.974000000000004Q172.22 54.168 169.532 54.168V52.403999999999996Q172.22 52.656 174.74 52.656Q178.94 52.656 182.594 52.361999999999995Q186.248 52.068 189.356 51.48V57.528Q190.448 55.343999999999994 192.04399999999998 53.958Q193.64 52.571999999999996 195.69799999999998 51.89999999999999Q197.756 51.227999999999994 200.192 51.227999999999994Z M239.67200000000003 51.227999999999994Q245.88800000000003 51.227999999999994 250.08800000000002 56.39399999999999Q254.288 61.559999999999995 254.288 72.312Q254.288 81.804 251.60000000000002 87.26400000000001Q248.91200000000003 92.724 244.46000000000004 94.95Q240.00800000000004 97.176 234.716 97.176Q231.86 97.176 229.508 96.84Q227.156 96.504 224.972 95.16L225.89600000000002 93.816Q226.98800000000003 94.656 228.33200000000002 95.076Q229.67600000000002 95.496 230.85200000000003 95.496Q234.8 95.496 236.69 90.20400000000001Q238.58 84.912 238.58 74.244Q238.58 66.768 237.824 62.736000000000004Q237.068 58.704 235.80800000000002 57.15Q234.54800000000003 55.596 232.95200000000003 55.596Q230.60000000000002 55.596 228.752 57.275999999999996Q226.90400000000002 58.955999999999996 226.90400000000002 61.644V57.528Q228.836 54.336 232.11200000000002 52.782Q235.38800000000003 51.227999999999994 239.67200000000003 51.227999999999994ZM226.90400000000002 30.311999999999998V96.168Q224.132 94.992 221.234 94.908Q218.336 94.824 215.984 95.49600000000001Q213.632 96.168 212.372 97.344L211.19600000000003 96.504Q211.616 95.328 211.70000000000002 94.194Q211.78400000000002 93.06 211.78400000000002 91.884V40.391999999999996Q211.78400000000002 36.611999999999995 210.776 34.806Q209.76800000000003 32.99999999999999 207.08 32.99999999999999V31.23599999999999Q209.76800000000003 31.488 212.288 31.488Q216.48800000000003 31.488 220.14200000000002 31.193999999999996Q223.79600000000002 30.89999999999999 226.90400000000002 30.311999999999998Z M281.168 51.227999999999994Q287.72 51.227999999999994 292.55 53.45399999999999Q297.38 55.68 300.068 60.72Q302.756 65.75999999999999 302.756 74.244Q302.756 82.728 300.068 87.768Q297.38 92.80799999999999 292.55 94.99199999999999Q287.72 97.176 281.168 97.176Q274.7 97.176 269.828 94.99199999999999Q264.956 92.80799999999999 262.26800000000003 87.768Q259.58 82.728 259.58 74.244Q259.58 65.75999999999999 262.26800000000003 60.72Q264.956 55.68 269.828 53.45399999999999Q274.7 51.227999999999994 281.168 51.227999999999994ZM281.168 52.907999999999994Q278.648 52.907999999999994 276.968 57.94799999999999Q275.288 62.988 275.288 74.244Q275.288 85.5 276.968 90.49799999999999Q278.648 95.496 281.168 95.496Q283.688 95.496 285.368 90.49799999999999Q287.048 85.5 287.048 74.244Q287.048 62.988 285.368 57.94799999999999Q283.688 52.907999999999994 281.168 52.907999999999994Z M340.30400000000003 51.227999999999994Q344.168 51.227999999999994 346.394 52.193999999999996Q348.62 53.16 349.796 54.588Q351.05600000000004 56.099999999999994 351.644 58.62Q352.232 61.14 352.232 65.424V88.188Q352.232 91.716 353.28200000000004 92.976Q354.332 94.236 356.93600000000004 94.236V96.0Q355.25600000000003 95.916 351.85400000000004 95.78999999999999Q348.452 95.664 345.17600000000004 95.664Q341.648 95.664 338.288 95.78999999999999Q334.928 95.916 333.248 96.0V94.236Q335.432 94.236 336.27200000000005 92.976Q337.112 91.716 337.112 88.188V60.888Q337.112 59.123999999999995 336.692 57.94799999999999Q336.272 56.772 335.39 56.184Q334.50800000000004 55.596 332.99600000000004 55.596Q331.48400000000004 55.596 330.098 56.352Q328.712 57.108 327.83000000000004 58.494Q326.94800000000004 59.879999999999995 326.94800000000004 61.644V88.188Q326.94800000000004 91.716 327.83000000000004 92.976Q328.712 94.236 330.812 94.236V96.0Q329.216 95.916 326.108 95.78999999999999Q323.0 95.664 319.724 95.664Q316.196 95.664 312.58400000000006 95.78999999999999Q308.97200000000004 95.916 307.124 96.0V94.236Q309.728 94.236 310.778 92.976Q311.82800000000003 91.716 311.82800000000003 88.188V61.559999999999995Q311.82800000000003 57.78 310.82000000000005 55.974000000000004Q309.812 54.168 307.124 54.168V52.403999999999996Q309.812 52.656 312.332 52.656Q316.53200000000004 52.656 320.18600000000004 52.361999999999995Q323.84000000000003 52.068 326.94800000000004 51.48V57.528Q328.964 54.168 332.366 52.69799999999999Q335.76800000000003 51.227999999999994 340.30400000000003 51.227999999999994Z M431.444 36.528Q431.108 41.483999999999995 430.982 46.104Q430.85600000000005 50.724 430.85600000000005 53.16Q430.85600000000005 54.924 430.94000000000005 56.519999999999996Q431.024 58.116 431.108 59.208H429.17600000000004Q427.244 51.312 424.514 46.775999999999996Q421.78400000000005 42.239999999999995 418.7180000000001 40.349999999999994Q415.65200000000004 38.459999999999994 412.62800000000004 38.459999999999994H412.54400000000004V86.508Q412.54400000000004 89.952 413.25800000000004 91.632Q413.97200000000004 93.312 415.98800000000006 93.816Q418.004 94.32 421.86800000000005 94.32V96.0Q418.928 95.916 413.93 95.832Q408.932 95.748 403.47200000000004 95.748Q398.264 95.748 393.644 95.832Q389.024 95.916 386.168 96.0V94.32Q390.03200000000004 94.32 392.048 93.816Q394.064 93.312 394.778 91.632Q395.492 89.952 395.492 86.508V38.459999999999994H395.408Q392.384 38.459999999999994 389.318 40.349999999999994Q386.252 42.239999999999995 383.564 46.733999999999995Q380.87600000000003 51.227999999999994 378.86 59.208H376.928Q377.096 58.116 377.13800000000003 56.519999999999996Q377.18 54.924 377.18 53.16Q377.18 50.724 377.054 46.104Q376.928 41.483999999999995 376.59200000000004 36.528Q380.624 36.611999999999995 385.49600000000004 36.696Q390.36800000000005 36.779999999999994 395.24 36.779999999999994Q400.112 36.779999999999994 404.06 36.779999999999994Q408.00800000000004 36.779999999999994 412.88 36.779999999999994Q417.752 36.779999999999994 422.624 36.696Q427.49600000000004 36.611999999999995 431.444 36.528Z M465.8 51.227999999999994Q468.824 51.227999999999994 470.504 52.53Q472.184 53.832 472.856 55.806Q473.528 57.78 473.528 59.711999999999996Q473.528 63.492 471.386 65.718Q469.244 67.944 465.8 67.944Q462.10400000000004 67.944 460.21400000000006 66.26400000000001Q458.324 64.584 458.324 61.896Q458.324 59.04 459.54200000000003 57.19199999999999Q460.76000000000005 55.343999999999994 462.60800000000006 54.083999999999996Q461.09600000000006 54.083999999999996 459.92 54.672Q458.91200000000003 55.092 457.98800000000006 55.848Q457.064 56.604 456.39200000000005 57.56999999999999Q455.72 58.535999999999994 455.34200000000004 59.711999999999996Q454.96400000000006 60.888 454.96400000000006 62.147999999999996V87.348Q454.96400000000006 91.38 456.644 92.80799999999999Q458.324 94.236 462.18800000000005 94.236V96.0Q460.25600000000003 95.916 456.434 95.78999999999999Q452.612 95.664 448.58000000000004 95.664Q444.8 95.664 440.93600000000004 95.78999999999999Q437.07200000000006 95.916 435.14000000000004 96.0V94.236Q437.744 94.236 438.79400000000004 92.976Q439.84400000000005 91.716 439.84400000000005 88.188V61.559999999999995Q439.84400000000005 57.78 438.836 55.974000000000004Q437.82800000000003 54.168 435.14000000000004 54.168V52.403999999999996Q437.82800000000003 52.656 440.348 52.656Q444.54800000000006 52.656 448.20200000000006 52.361999999999995Q451.85600000000005 52.068 454.96400000000006 51.48V57.528Q456.05600000000004 55.343999999999994 457.65200000000004 53.958Q459.24800000000005 52.571999999999996 461.30600000000004 51.89999999999999Q463.36400000000003 51.227999999999994 465.8 51.227999999999994Z M486.884 96.588Q482.93600000000004 96.588 480.41600000000005 95.076Q477.896 93.564 476.76200000000006 91.12799999999999Q475.62800000000004 88.692 475.62800000000004 86.004Q475.62800000000004 82.476 477.22400000000005 80.25Q478.82000000000005 78.024 481.38200000000006 76.638Q483.944 75.252 486.8 74.328Q489.656 73.404 492.218 72.52199999999999Q494.78000000000003 71.64 496.37600000000003 70.422Q497.97200000000004 69.204 497.97200000000004 67.27199999999999V59.796Q497.97200000000004 58.452 497.51 56.855999999999995Q497.048 55.26 495.788 54.083999999999996Q494.528 52.907999999999994 492.00800000000004 52.907999999999994Q490.66400000000004 52.907999999999994 489.446 53.285999999999994Q488.228 53.663999999999994 487.30400000000003 54.336Q490.244 55.428 491.588 57.402Q492.932 59.376 492.932 61.727999999999994Q492.932 65.088 490.58000000000004 67.02Q488.228 68.952 485.03600000000006 68.952Q481.67600000000004 68.952 479.82800000000003 66.852Q477.98 64.752 477.98 61.644Q477.98 59.04 479.28200000000004 57.233999999999995Q480.584 55.428 483.18800000000005 53.916Q485.708 52.488 489.236 51.858Q492.764 51.227999999999994 496.62800000000004 51.227999999999994Q500.744 51.227999999999994 504.27200000000005 52.025999999999996Q507.8 52.824 510.32000000000005 55.428Q512.0840000000001 57.275999999999996 512.588 60.048Q513.092 62.82 513.092 67.188V89.7Q513.092 91.8 513.386 92.556Q513.6800000000001 93.312 514.436 93.312Q515.1080000000001 93.312 515.738 92.892Q516.368 92.472 516.956 92.05199999999999L517.796 93.48Q515.948 95.076 513.2180000000001 95.832Q510.48800000000006 96.588 507.46400000000006 96.588Q503.85200000000003 96.588 501.87800000000004 95.70599999999999Q499.90400000000005 94.824 499.10600000000005 93.354Q498.30800000000005 91.884 498.22400000000005 90.204Q496.46000000000004 92.976 493.814 94.782Q491.168 96.588 486.884 96.588ZM494.86400000000003 89.868Q495.788 89.868 496.502 89.574Q497.216 89.28 497.97200000000004 88.44V70.716Q497.384 71.80799999999999 496.418 72.858Q495.45200000000006 73.908 494.4440000000001 75.0Q493.43600000000004 76.092 492.55400000000003 77.352Q491.672 78.612 491.12600000000003 80.25Q490.58000000000004 81.888 490.58000000000004 84.072Q490.58000000000004 87.264 491.798 88.566Q493.016 89.868 494.86400000000003 89.868Z M531.908 30.311999999999998Q536.276 30.311999999999998 538.67 32.117999999999995Q541.064 33.924 541.064 37.535999999999994Q541.064 41.147999999999996 538.67 42.95399999999999Q536.276 44.76 531.908 44.76Q527.54 44.76 525.146 42.95399999999999Q522.752 41.147999999999996 522.752 37.535999999999994Q522.752 33.924 525.146 32.117999999999995Q527.54 30.311999999999998 531.908 30.311999999999998ZM539.972 51.48V88.15784615384615Q539.972 91.716 541.0219999999999 92.976Q542.072 94.236 544.676 94.236V96.0Q543.015534883721 95.916 539.6457674418605 95.78999999999999Q536.2760000000001 95.664 532.748 95.664Q529.232923076923 95.664 525.6144615384615 95.78999999999999Q521.996 95.916 520.148 96.0V94.236Q522.7520000000001 94.236 523.802 92.976Q524.852 91.716 524.852 88.15272V61.5978Q524.852 57.78 523.8616842105264 55.974000000000004Q522.8713684210527 54.168 520.148 54.168V52.403999999999996Q522.836 52.656 525.356 52.656Q529.556 52.656 533.21 52.361999999999995Q536.864 52.068 539.972 51.48Z M567.44 30.311999999999998V88.19771900826446Q567.44 91.716 568.49 92.976Q569.5400000000001 94.236 572.144 94.236V96.0Q570.483534883721 95.916 567.1137674418605 95.78999999999999Q563.744 95.664 560.216 95.664Q556.7009230769231 95.664 553.0824615384615 95.78999999999999Q549.464 95.916 547.616 96.0V94.236Q550.22 94.236 551.27 92.97966279069767Q552.32 91.72332558139534 552.32 88.20558139534883V40.38101162790697Q552.32 36.611999999999995 551.3296842105264 34.806Q550.3393684210527 32.99999999999999 547.616 32.99999999999999V31.23599999999999Q550.3040000000001 31.488 552.8240000000001 31.488Q557.024 31.488 560.678 31.193999999999996Q564.332 30.89999999999999 567.44 30.311999999999998Z" fill="#0E2F44"/><path d="M576.008 36.528Q578.4440000000001 36.611999999999995 582.4340000000001 36.696Q586.4240000000001 36.779999999999994 590.456 36.779999999999994Q594.6560000000001 36.779999999999994 598.52 36.696Q602.384 36.611999999999995 603.98 36.611999999999995Q616.748 36.611999999999995 623.0060000000001 41.232Q629.2640000000001 45.852 629.2640000000001 53.16Q629.2640000000001 56.184 628.0040000000001 59.501999999999995Q626.744 62.82 623.72 65.634Q620.696 68.448 615.446 70.21199999999999Q610.196 71.976 602.1320000000001 71.976H593.2280000000001V70.29599999999999H601.292Q605.576 70.29599999999999 607.802 68.02799999999999Q610.028 65.75999999999999 610.826 62.06399999999999Q611.624 58.367999999999995 611.624 54.083999999999996Q611.624 46.104 609.818 42.156Q608.0120000000001 38.208 603.5600000000001 38.208Q600.7040000000001 38.208 599.864 39.635999999999996Q599.0240000000001 41.064 599.0240000000001 45.431999999999995V86.256Q599.0240000000001 89.7 599.738 91.38Q600.4520000000001 93.06 602.4680000000001 93.564Q604.484 94.068 608.3480000000001 94.068V96.0Q605.4920000000001 95.916 600.8720000000001 95.832Q596.2520000000001 95.748 591.0440000000001 95.748Q587.1800000000001 95.748 583.316 95.832Q579.4520000000001 95.916 576.008 96.0V94.32Q578.6120000000001 94.152 579.8720000000001 93.648Q581.1320000000001 93.144 581.5520000000001 91.632Q581.9720000000001 90.12 581.9720000000001 87.096V45.431999999999995Q581.9720000000001 42.324 581.5520000000001 40.854Q581.1320000000001 39.38399999999999 579.83 38.837999999999994Q578.528 38.291999999999994 576.008 38.208Z M651.0200000000001 30.311999999999998V88.19771900826446Q651.0200000000001 91.716 652.0700000000002 92.976Q653.1200000000001 94.236 655.724 94.236V96.0Q654.063534883721 95.916 650.6937674418605 95.78999999999999Q647.3240000000001 95.664 643.796 95.664Q640.2809230769232 95.664 636.6624615384617 95.78999999999999Q633.0440000000001 95.916 631.196 96.0V94.236Q633.8000000000001 94.236 634.8500000000001 92.97966279069767Q635.9000000000001 91.72332558139534 635.9000000000001 88.20558139534883V40.38101162790697Q635.9000000000001 36.611999999999995 634.9096842105264 34.806Q633.9193684210527 32.99999999999999 631.196 32.99999999999999V31.23599999999999Q633.8840000000001 31.488 636.4040000000001 31.488Q640.604 31.488 644.258 31.193999999999996Q647.912 30.89999999999999 651.0200000000001 30.311999999999998Z M670.3400000000001 96.588Q666.392 96.588 663.8720000000001 95.076Q661.3520000000001 93.564 660.2180000000001 91.12799999999999Q659.0840000000001 88.692 659.0840000000001 86.004Q659.0840000000001 82.476 660.6800000000001 80.25Q662.2760000000001 78.024 664.8380000000001 76.638Q667.4000000000001 75.252 670.2560000000001 74.328Q673.1120000000001 73.404 675.6740000000001 72.52199999999999Q678.2360000000001 71.64 679.8320000000001 70.422Q681.4280000000001 69.204 681.4280000000001 67.27199999999999V59.796Q681.4280000000001 58.452 680.9660000000001 56.855999999999995Q680.5040000000001 55.26 679.2440000000001 54.083999999999996Q677.9840000000002 52.907999999999994 675.464 52.907999999999994Q674.1200000000001 52.907999999999994 672.902 53.285999999999994Q671.6840000000001 53.663999999999994 670.7600000000001 54.336Q673.7000000000002 55.428 675.0440000000001 57.402Q676.3880000000001 59.376 676.3880000000001 61.727999999999994Q676.3880000000001 65.088 674.0360000000001 67.02Q671.6840000000001 68.952 668.4920000000001 68.952Q665.1320000000001 68.952 663.2840000000001 66.852Q661.4360000000001 64.752 661.4360000000001 61.644Q661.4360000000001 59.04 662.738 57.233999999999995Q664.0400000000001 55.428 666.6440000000001 53.916Q669.1640000000001 52.488 672.6920000000001 51.858Q676.2200000000001 51.227999999999994 680.0840000000001 51.227999999999994Q684.2000000000002 51.227999999999994 687.7280000000001 52.025999999999996Q691.2560000000001 52.824 693.7760000000001 55.428Q695.5400000000001 57.275999999999996 696.0440000000001 60.048Q696.5480000000001 62.82 696.5480000000001 67.188V89.7Q696.5480000000001 91.8 696.8420000000001 92.556Q697.1360000000001 93.312 697.892 93.312Q698.5640000000001 93.312 699.1940000000001 92.892Q699.8240000000001 92.472 700.4120000000001 92.05199999999999L701.2520000000001 93.48Q699.4040000000001 95.076 696.6740000000001 95.832Q693.9440000000001 96.588 690.9200000000001 96.588Q687.3080000000001 96.588 685.3340000000001 95.70599999999999Q683.3600000000001 94.824 682.5620000000001 93.354Q681.7640000000001 91.884 681.6800000000001 90.204Q679.916 92.976 677.2700000000001 94.782Q674.6240000000001 96.588 670.3400000000001 96.588ZM678.32 89.868Q679.2440000000001 89.868 679.9580000000001 89.574Q680.6720000000001 89.28 681.4280000000001 88.44V70.716Q680.8400000000001 71.80799999999999 679.8740000000001 72.858Q678.9080000000001 73.908 677.9000000000001 75.0Q676.892 76.092 676.0100000000001 77.352Q675.1280000000002 78.612 674.5820000000001 80.25Q674.0360000000001 81.888 674.0360000000001 84.072Q674.0360000000001 87.264 675.2540000000001 88.566Q676.4720000000001 89.868 678.32 89.868Z M736.7840000000001 51.227999999999994Q740.6480000000001 51.227999999999994 742.8740000000001 52.193999999999996Q745.1000000000001 53.16 746.2760000000002 54.588Q747.5360000000002 56.099999999999994 748.1240000000001 58.62Q748.7120000000001 61.14 748.7120000000001 65.424V88.188Q748.7120000000001 91.716 749.7620000000002 92.976Q750.8120000000001 94.236 753.4160000000002 94.236V96.0Q751.7360000000001 95.916 748.3340000000001 95.78999999999999Q744.9320000000001 95.664 741.6560000000002 95.664Q738.1280000000002 95.664 734.7680000000001 95.78999999999999Q731.4080000000001 95.916 729.7280000000002 96.0V94.236Q731.9120000000001 94.236 732.7520000000002 92.976Q733.5920000000001 91.716 733.5920000000001 88.188V60.888Q733.5920000000001 59.123999999999995 733.1720000000001 57.94799999999999Q732.7520000000002 56.772 731.8700000000001 56.184Q730.9880000000002 55.596 729.4760000000001 55.596Q727.9640000000002 55.596 726.5780000000002 56.352Q725.1920000000001 57.108 724.3100000000002 58.494Q723.4280000000001 59.879999999999995 723.4280000000001 61.644V88.188Q723.4280000000001 91.716 724.3100000000002 92.976Q725.1920000000001 94.236 727.2920000000001 94.236V96.0Q725.6960000000001 95.916 722.5880000000002 95.78999999999999Q719.4800000000001 95.664 716.2040000000002 95.664Q712.6760000000002 95.664 709.0640000000001 95.78999999999999Q705.4520000000001 95.916 703.6040000000002 96.0V94.236Q706.2080000000002 94.236 707.2580000000002 92.976Q708.3080000000001 91.716 708.3080000000001 88.188V61.559999999999995Q708.3080000000001 57.78 707.3000000000002 55.974000000000004Q706.2920000000001 54.168 703.6040000000002 54.168V52.403999999999996Q706.2920000000001 52.656 708.8120000000001 52.656Q713.0120000000002 52.656 716.6660000000002 52.361999999999995Q720.3200000000002 52.068 723.4280000000001 51.48V57.528Q725.4440000000002 54.168 728.8460000000002 52.69799999999999Q732.2480000000002 51.227999999999994 736.7840000000001 51.227999999999994Z M789.2840000000001 51.227999999999994Q793.1480000000001 51.227999999999994 795.3740000000001 52.193999999999996Q797.6000000000001 53.16 798.7760000000002 54.588Q800.0360000000002 56.099999999999994 800.6240000000001 58.62Q801.2120000000001 61.14 801.2120000000001 65.424V88.188Q801.2120000000001 91.716 802.2620000000002 92.976Q803.3120000000001 94.236 805.9160000000002 94.236V96.0Q804.2360000000001 95.916 800.8340000000001 95.78999999999999Q797.4320000000001 95.664 794.1560000000002 95.664Q790.6280000000002 95.664 787.2680000000001 95.78999999999999Q783.9080000000001 95.916 782.2280000000002 96.0V94.236Q784.4120000000001 94.236 785.2520000000002 92.976Q786.0920000000001 91.716 786.0920000000001 88.188V60.888Q786.0920000000001 59.123999999999995 785.6720000000001 57.94799999999999Q785.2520000000002 56.772 784.3700000000001 56.184Q783.4880000000002 55.596 781.9760000000001 55.596Q780.4640000000002 55.596 779.0780000000002 56.352Q777.6920000000001 57.108 776.8100000000002 58.494Q775.9280000000001 59.879999999999995 775.9280000000001 61.644V88.188Q775.9280000000001 91.716 776.8100000000002 92.976Q777.6920000000001 94.236 779.7920000000001 94.236V96.0Q778.1960000000001 95.916 775.0880000000002 95.78999999999999Q771.9800000000001 95.664 768.7040000000002 95.664Q765.1760000000002 95.664 761.5640000000001 95.78999999999999Q757.9520000000001 95.916 756.1040000000002 96.0V94.236Q758.7080000000002 94.236 759.7580000000002 92.976Q760.8080000000001 91.716 760.8080000000001 88.188V61.559999999999995Q760.8080000000001 57.78 759.8000000000002 55.974000000000004Q758.7920000000001 54.168 756.1040000000002 54.168V52.403999999999996Q758.7920000000001 52.656 761.3120000000001 52.656Q765.5120000000002 52.656 769.1660000000002 52.361999999999995Q772.8200000000002 52.068 775.9280000000001 51.48V57.528Q777.9440000000002 54.168 781.3460000000002 52.69799999999999Q784.7480000000002 51.227999999999994 789.2840000000001 51.227999999999994Z M831.0320000000002 51.227999999999994Q838.4240000000002 51.227999999999994 842.6660000000002 55.553999999999995Q846.9080000000001 59.879999999999995 846.9080000000001 70.044H820.6160000000001L820.4480000000001 68.448H834.6440000000001Q834.7280000000002 64.332 834.3080000000002 60.846Q833.8880000000001 57.36 832.9640000000002 55.26Q832.0400000000002 53.16 830.4440000000002 53.16Q828.1760000000002 53.16 826.7480000000002 56.73Q825.3200000000002 60.3 824.9000000000001 68.952L825.2360000000001 69.624Q825.1520000000002 70.464 825.1520000000002 71.304Q825.1520000000002 72.144 825.1520000000002 73.068Q825.1520000000002 78.94800000000001 826.6220000000001 82.224Q828.0920000000001 85.5 830.3180000000001 86.75999999999999Q832.5440000000001 88.02 834.8120000000001 88.02Q835.9880000000002 88.02 837.6260000000002 87.684Q839.2640000000001 87.348 841.1960000000001 86.13Q843.1280000000002 84.912 844.9760000000001 82.392L846.4040000000001 82.896Q845.3960000000002 86.256 843.1700000000002 89.574Q840.9440000000002 92.892 837.4160000000002 95.03399999999999Q833.8880000000001 97.176 828.8480000000002 97.176Q823.4720000000001 97.176 819.0620000000001 94.99199999999999Q814.6520000000002 92.80799999999999 812.0480000000002 87.768Q809.4440000000002 82.728 809.4440000000002 74.244Q809.4440000000002 66.18 812.3000000000002 61.098Q815.1560000000002 56.016 820.0700000000002 53.622Q824.9840000000002 51.227999999999994 831.0320000000002 51.227999999999994Z M880.6760000000002 51.227999999999994Q883.7000000000002 51.227999999999994 885.3800000000001 52.53Q887.0600000000002 53.832 887.7320000000002 55.806Q888.4040000000002 57.78 888.4040000000002 59.711999999999996Q888.4040000000002 63.492 886.2620000000002 65.718Q884.1200000000002 67.944 880.6760000000002 67.944Q876.9800000000001 67.944 875.0900000000001 66.26400000000001Q873.2000000000002 64.584 873.2000000000002 61.896Q873.2000000000002 59.04 874.4180000000001 57.19199999999999Q875.6360000000002 55.343999999999994 877.4840000000002 54.083999999999996Q875.9720000000002 54.083999999999996 874.7960000000002 54.672Q873.7880000000002 55.092 872.8640000000003 55.848Q871.9400000000002 56.604 871.2680000000003 57.56999999999999Q870.5960000000002 58.535999999999994 870.2180000000002 59.711999999999996Q869.8400000000001 60.888 869.8400000000001 62.147999999999996V87.348Q869.8400000000001 91.38 871.5200000000002 92.80799999999999Q873.2000000000002 94.236 877.0640000000002 94.236V96.0Q875.1320000000002 95.916 871.3100000000002 95.78999999999999Q867.4880000000002 95.664 863.4560000000001 95.664Q859.6760000000002 95.664 855.8120000000001 95.78999999999999Q851.9480000000002 95.916 850.0160000000002 96.0V94.236Q852.6200000000002 94.236 853.6700000000002 92.976Q854.7200000000001 91.716 854.7200000000001 88.188V61.559999999999995Q854.7200000000001 57.78 853.7120000000002 55.974000000000004Q852.7040000000002 54.168 850.0160000000002 54.168V52.403999999999996Q852.7040000000002 52.656 855.2240000000002 52.656Q859.4240000000002 52.656 863.0780000000002 52.361999999999995Q866.7320000000002 52.068 869.8400000000001 51.48V57.528Q870.9320000000001 55.343999999999994 872.5280000000001 53.958Q874.1240000000001 52.571999999999996 876.1820000000002 51.89999999999999Q878.2400000000002 51.227999999999994 880.6760000000002 51.227999999999994Z" fill="#D4A03C"/><path d="M12,114 Q 230.16400000000004,107 448.3280000000001,114 T 884.6560000000002,111" fill="none" stroke="#D4A03C" stroke-width="7" stroke-dasharray="26 17" stroke-linecap="round"/><circle cx="12" cy="114" r="8" fill="#D4A03C"/><circle cx="448.3280000000001" cy="113" r="8" fill="#D4A03C"/><circle cx="884.6560000000002" cy="111" r="8" fill="#D4A03C"/></svg>